<svg width="900" height="1100" viewBox="0 0 900 1100" xmlns="http://www.w3.org/2000/svg" role="img" aria-labelledby="title desc">
  <title id="title">Temporary coach photo - Morgan Chen</title>
  <desc id="desc">Stylized temporary pickleball coach portrait for layout preview.</desc>
  <defs>
    <linearGradient id="bg" x1="0" y1="0" x2="1" y2="1"><stop stop-color="#fff1c7"/><stop offset="1" stop-color="#90e0ef"/></linearGradient>
    <linearGradient id="top" x1="0" y1="0" x2="1" y2="1"><stop stop-color="#00a896"/><stop offset="1" stop-color="#12372a"/></linearGradient>
  </defs>
  <rect width="900" height="1100" fill="url(#bg)"/>
  <circle cx="176" cy="190" r="82" fill="#c6ff4a" opacity=".8"/>
  <circle cx="450" cy="382" r="176" fill="#d9946a"/>
  <path d="M262 390c7-157 91-246 241-228 112 13 174 100 173 235-45-81-104-105-178-98-64 6-131-7-196-48-29 41-43 86-40 139z" fill="#21160f"/>
  <path d="M305 560c74 79 219 79 294 0 95 41 154 118 180 218l42 160H79l42-160c26-100 85-177 184-218z" fill="url(#top)"/>
  <path d="M354 620c78 58 145 58 224 0" stroke="#fff8e7" stroke-width="26" stroke-linecap="round" fill="none" opacity=".9"/>
  <circle cx="382" cy="396" r="17" fill="#12372a"/><circle cx="522" cy="396" r="17" fill="#12372a"/>
  <path d="M384 480c42 31 94 31 136 0" fill="none" stroke="#7a3e25" stroke-width="17" stroke-linecap="round"/>
  <rect x="126" y="632" width="90" height="248" rx="45" fill="#fff8e7" transform="rotate(16 171 756)"/>
  <circle cx="146" cy="605" r="82" fill="#c6ff4a" transform="rotate(16 146 605)"/>
  <text x="450" y="1015" text-anchor="middle" font-family="Arial, Helvetica, sans-serif" font-size="46" font-weight="900" fill="#12372a">MORGAN CHEN</text>
</svg>
