<svg width="900" height="1100" viewBox="0 0 900 1100" xmlns="http://www.w3.org/2000/svg" role="img" aria-labelledby="title desc">
  <title id="title">Temporary coach photo - Jordan Coach</title>
  <desc id="desc">Stylized temporary pickleball coach portrait for layout preview.</desc>
  <defs>
    <linearGradient id="bg" x1="0" y1="0" x2="1" y2="1"><stop stop-color="#12372a"/><stop offset="1" stop-color="#00a896"/></linearGradient>
    <linearGradient id="shirt" x1="0" y1="0" x2="1" y2="1"><stop stop-color="#fff8e7"/><stop offset="1" stop-color="#ffd166"/></linearGradient>
  </defs>
  <rect width="900" height="1100" fill="url(#bg)"/>
  <path d="M0 820c170-70 320-84 450-42s280 38 450-42v364H0z" fill="#c6ff4a" opacity=".34"/>
  <circle cx="450" cy="382" r="174" fill="#c9825b"/>
  <path d="M286 342c32-112 126-170 245-142 86 20 137 85 144 170-82-66-181-89-318-48-38 11-64 18-71 20z" fill="#14100c"/>
  <path d="M315 558c78 86 225 86 303 0 91 42 151 119 177 218l38 146H67l38-146c26-99 86-176 210-218z" fill="url(#shirt)"/>
  <path d="M353 624l97 104 97-104" stroke="#12372a" stroke-width="24" stroke-linecap="round" stroke-linejoin="round" fill="none"/>
  <circle cx="383" cy="398" r="17" fill="#12372a"/><circle cx="520" cy="398" r="17" fill="#12372a"/>
  <path d="M383 480c43 35 95 35 138 0" fill="none" stroke="#7a3e25" stroke-width="17" stroke-linecap="round"/>
  <rect x="638" y="628" width="92" height="250" rx="46" fill="#fff8e7" transform="rotate(22 684 753)"/>
  <circle cx="660" cy="595" r="82" fill="#90e0ef" transform="rotate(22 660 595)"/>
  <text x="450" y="1015" text-anchor="middle" font-family="Arial, Helvetica, sans-serif" font-size="46" font-weight="900" fill="#fff8e7">JORDAN COACH</text>
</svg>
